%TF.GenerationSoftware,KiCad,Pcbnew,(5.1.10-1-10_14)*%
%TF.CreationDate,2022-09-21T16:33:10-04:00*%
%TF.ProjectId,MMCBreakOut,4d4d4342-7265-4616-9b4f-75742e6b6963,rev?*%
%TF.SameCoordinates,Original*%
%TF.FileFunction,Soldermask,Top*%
%TF.FilePolarity,Negative*%
%FSLAX46Y46*%
G04 Gerber Fmt 4.6, Leading zero omitted, Abs format (unit mm)*
G04 Created by KiCad (PCBNEW (5.1.10-1-10_14)) date 2022-09-21 16:33:10*
%MOMM*%
%LPD*%
G01*
G04 APERTURE LIST*
%ADD10R,2.000000X0.300000*%
%ADD11R,0.300000X2.000000*%
%ADD12O,1.700000X1.700000*%
%ADD13R,1.700000X1.700000*%
G04 APERTURE END LIST*
D10*
%TO.C,MAG1*%
X109062500Y-58940000D03*
X109062500Y-59440000D03*
X109062500Y-59940000D03*
X109062500Y-60440000D03*
D11*
X110375000Y-61752500D03*
X110875000Y-61752500D03*
X111375000Y-61752500D03*
X111875000Y-61752500D03*
D10*
X113170000Y-60440000D03*
X113170000Y-59940000D03*
X113170000Y-59440000D03*
X113170000Y-58940000D03*
D11*
X111875000Y-57645000D03*
X111375000Y-57645000D03*
X110875000Y-57645000D03*
X110375000Y-57645000D03*
%TD*%
%TO.C,C1*%
G36*
G01*
X117000000Y-59970000D02*
X117950000Y-59970000D01*
G75*
G02*
X118200000Y-60220000I0J-250000D01*
G01*
X118200000Y-60895000D01*
G75*
G02*
X117950000Y-61145000I-250000J0D01*
G01*
X117000000Y-61145000D01*
G75*
G02*
X116750000Y-60895000I0J250000D01*
G01*
X116750000Y-60220000D01*
G75*
G02*
X117000000Y-59970000I250000J0D01*
G01*
G37*
G36*
G01*
X117000000Y-62045000D02*
X117950000Y-62045000D01*
G75*
G02*
X118200000Y-62295000I0J-250000D01*
G01*
X118200000Y-62970000D01*
G75*
G02*
X117950000Y-63220000I-250000J0D01*
G01*
X117000000Y-63220000D01*
G75*
G02*
X116750000Y-62970000I0J250000D01*
G01*
X116750000Y-62295000D01*
G75*
G02*
X117000000Y-62045000I250000J0D01*
G01*
G37*
%TD*%
%TO.C,C2*%
G36*
G01*
X117950000Y-56700000D02*
X117000000Y-56700000D01*
G75*
G02*
X116750000Y-56450000I0J250000D01*
G01*
X116750000Y-55775000D01*
G75*
G02*
X117000000Y-55525000I250000J0D01*
G01*
X117950000Y-55525000D01*
G75*
G02*
X118200000Y-55775000I0J-250000D01*
G01*
X118200000Y-56450000D01*
G75*
G02*
X117950000Y-56700000I-250000J0D01*
G01*
G37*
G36*
G01*
X117950000Y-58775000D02*
X117000000Y-58775000D01*
G75*
G02*
X116750000Y-58525000I0J250000D01*
G01*
X116750000Y-57850000D01*
G75*
G02*
X117000000Y-57600000I250000J0D01*
G01*
X117950000Y-57600000D01*
G75*
G02*
X118200000Y-57850000I0J-250000D01*
G01*
X118200000Y-58525000D01*
G75*
G02*
X117950000Y-58775000I-250000J0D01*
G01*
G37*
%TD*%
%TO.C,R1*%
G36*
G01*
X103320001Y-63195000D02*
X102419999Y-63195000D01*
G75*
G02*
X102170000Y-62945001I0J249999D01*
G01*
X102170000Y-62244999D01*
G75*
G02*
X102419999Y-61995000I249999J0D01*
G01*
X103320001Y-61995000D01*
G75*
G02*
X103570000Y-62244999I0J-249999D01*
G01*
X103570000Y-62945001D01*
G75*
G02*
X103320001Y-63195000I-249999J0D01*
G01*
G37*
G36*
G01*
X103320001Y-61195000D02*
X102419999Y-61195000D01*
G75*
G02*
X102170000Y-60945001I0J249999D01*
G01*
X102170000Y-60244999D01*
G75*
G02*
X102419999Y-59995000I249999J0D01*
G01*
X103320001Y-59995000D01*
G75*
G02*
X103570000Y-60244999I0J-249999D01*
G01*
X103570000Y-60945001D01*
G75*
G02*
X103320001Y-61195000I-249999J0D01*
G01*
G37*
%TD*%
%TO.C,R2*%
G36*
G01*
X102419999Y-57550000D02*
X103320001Y-57550000D01*
G75*
G02*
X103570000Y-57799999I0J-249999D01*
G01*
X103570000Y-58500001D01*
G75*
G02*
X103320001Y-58750000I-249999J0D01*
G01*
X102419999Y-58750000D01*
G75*
G02*
X102170000Y-58500001I0J249999D01*
G01*
X102170000Y-57799999D01*
G75*
G02*
X102419999Y-57550000I249999J0D01*
G01*
G37*
G36*
G01*
X102419999Y-55550000D02*
X103320001Y-55550000D01*
G75*
G02*
X103570000Y-55799999I0J-249999D01*
G01*
X103570000Y-56500001D01*
G75*
G02*
X103320001Y-56750000I-249999J0D01*
G01*
X102419999Y-56750000D01*
G75*
G02*
X102170000Y-56500001I0J249999D01*
G01*
X102170000Y-55799999D01*
G75*
G02*
X102419999Y-55550000I249999J0D01*
G01*
G37*
%TD*%
D12*
%TO.C,J1*%
X97155000Y-62230000D03*
X97155000Y-59690000D03*
D13*
X97155000Y-57150000D03*
%TD*%
%TO.C,J2*%
X122555000Y-57150000D03*
D12*
X122555000Y-59690000D03*
X122555000Y-62230000D03*
%TD*%
M02*
