%TF.GenerationSoftware,KiCad,Pcbnew,(6.0.4)*%
%TF.CreationDate,2022-09-28T16:49:17-04:00*%
%TF.ProjectId,MMCBreakOut,4d4d4342-7265-4616-9b4f-75742e6b6963,rev?*%
%TF.SameCoordinates,Original*%
%TF.FileFunction,Legend,Top*%
%TF.FilePolarity,Positive*%
%FSLAX46Y46*%
G04 Gerber Fmt 4.6, Leading zero omitted, Abs format (unit mm)*
G04 Created by KiCad (PCBNEW (6.0.4)) date 2022-09-28 16:49:17*
%MOMM*%
%LPD*%
G01*
G04 APERTURE LIST*
%ADD10C,0.120000*%
%ADD11C,0.150000*%
%ADD12C,0.200000*%
%ADD13C,0.127000*%
G04 APERTURE END LIST*
D10*
%TO.C,MAG1*%
X110290714Y-59907142D02*
X110290714Y-59427142D01*
X110450714Y-59770000D01*
X110610714Y-59427142D01*
X110610714Y-59907142D01*
X110816428Y-59770000D02*
X111045000Y-59770000D01*
X110770714Y-59907142D02*
X110930714Y-59427142D01*
X111090714Y-59907142D01*
X111502142Y-59450000D02*
X111456428Y-59427142D01*
X111387857Y-59427142D01*
X111319285Y-59450000D01*
X111273571Y-59495714D01*
X111250714Y-59541428D01*
X111227857Y-59632857D01*
X111227857Y-59701428D01*
X111250714Y-59792857D01*
X111273571Y-59838571D01*
X111319285Y-59884285D01*
X111387857Y-59907142D01*
X111433571Y-59907142D01*
X111502142Y-59884285D01*
X111525000Y-59861428D01*
X111525000Y-59701428D01*
X111433571Y-59701428D01*
X111982142Y-59907142D02*
X111707857Y-59907142D01*
X111845000Y-59907142D02*
X111845000Y-59427142D01*
X111799285Y-59495714D01*
X111753571Y-59541428D01*
X111707857Y-59564285D01*
D11*
%TO.C,C1*%
X115927142Y-61126666D02*
X115974761Y-61174285D01*
X116022380Y-61317142D01*
X116022380Y-61412380D01*
X115974761Y-61555238D01*
X115879523Y-61650476D01*
X115784285Y-61698095D01*
X115593809Y-61745714D01*
X115450952Y-61745714D01*
X115260476Y-61698095D01*
X115165238Y-61650476D01*
X115070000Y-61555238D01*
X115022380Y-61412380D01*
X115022380Y-61317142D01*
X115070000Y-61174285D01*
X115117619Y-61126666D01*
X116022380Y-60174285D02*
X116022380Y-60745714D01*
X116022380Y-60460000D02*
X115022380Y-60460000D01*
X115165238Y-60555238D01*
X115260476Y-60650476D01*
X115308095Y-60745714D01*
%TO.C,C2*%
X105357142Y-62164166D02*
X105404761Y-62211785D01*
X105452380Y-62354642D01*
X105452380Y-62449880D01*
X105404761Y-62592738D01*
X105309523Y-62687976D01*
X105214285Y-62735595D01*
X105023809Y-62783214D01*
X104880952Y-62783214D01*
X104690476Y-62735595D01*
X104595238Y-62687976D01*
X104500000Y-62592738D01*
X104452380Y-62449880D01*
X104452380Y-62354642D01*
X104500000Y-62211785D01*
X104547619Y-62164166D01*
X104547619Y-61783214D02*
X104500000Y-61735595D01*
X104452380Y-61640357D01*
X104452380Y-61402261D01*
X104500000Y-61307023D01*
X104547619Y-61259404D01*
X104642857Y-61211785D01*
X104738095Y-61211785D01*
X104880952Y-61259404D01*
X105452380Y-61830833D01*
X105452380Y-61211785D01*
%TO.C,R1*%
X101672380Y-61761666D02*
X101196190Y-62095000D01*
X101672380Y-62333095D02*
X100672380Y-62333095D01*
X100672380Y-61952142D01*
X100720000Y-61856904D01*
X100767619Y-61809285D01*
X100862857Y-61761666D01*
X101005714Y-61761666D01*
X101100952Y-61809285D01*
X101148571Y-61856904D01*
X101196190Y-61952142D01*
X101196190Y-62333095D01*
X101672380Y-60809285D02*
X101672380Y-61380714D01*
X101672380Y-61095000D02*
X100672380Y-61095000D01*
X100815238Y-61190238D01*
X100910476Y-61285476D01*
X100958095Y-61380714D01*
%TO.C,R2*%
X101417380Y-56681666D02*
X100941190Y-57015000D01*
X101417380Y-57253095D02*
X100417380Y-57253095D01*
X100417380Y-56872142D01*
X100465000Y-56776904D01*
X100512619Y-56729285D01*
X100607857Y-56681666D01*
X100750714Y-56681666D01*
X100845952Y-56729285D01*
X100893571Y-56776904D01*
X100941190Y-56872142D01*
X100941190Y-57253095D01*
X100512619Y-56300714D02*
X100465000Y-56253095D01*
X100417380Y-56157857D01*
X100417380Y-55919761D01*
X100465000Y-55824523D01*
X100512619Y-55776904D01*
X100607857Y-55729285D01*
X100703095Y-55729285D01*
X100845952Y-55776904D01*
X101417380Y-56348333D01*
X101417380Y-55729285D01*
D12*
%TO.C,MAG1*%
X109197000Y-58312000D02*
G75*
G03*
X109197000Y-58312000I-100000J0D01*
G01*
D13*
X109875000Y-61190000D02*
X109625000Y-61190000D01*
X109625000Y-61190000D02*
X109625000Y-60940000D01*
X112625000Y-60940000D02*
X112625000Y-61190000D01*
X112625000Y-61190000D02*
X112375000Y-61190000D01*
X112375000Y-58190000D02*
X112625000Y-58190000D01*
X112625000Y-58190000D02*
X112625000Y-58440000D01*
X109625000Y-58440000D02*
X109625000Y-58190000D01*
X109625000Y-58190000D02*
X109875000Y-58190000D01*
D10*
%TO.C,C1*%
X118210000Y-61333748D02*
X118210000Y-61856252D01*
X116740000Y-61333748D02*
X116740000Y-61856252D01*
%TO.C,C2*%
X107415000Y-62258752D02*
X107415000Y-61736248D01*
X105945000Y-62258752D02*
X105945000Y-61736248D01*
%TO.C,R1*%
X102135000Y-61822064D02*
X102135000Y-61367936D01*
X103605000Y-61822064D02*
X103605000Y-61367936D01*
%TO.C,R2*%
X102135000Y-56922936D02*
X102135000Y-57377064D01*
X103605000Y-56922936D02*
X103605000Y-57377064D01*
%TO.C,J1*%
X95825000Y-55820000D02*
X97155000Y-55820000D01*
X95825000Y-57150000D02*
X95825000Y-55820000D01*
X95825000Y-58420000D02*
X98485000Y-58420000D01*
X98485000Y-58420000D02*
X98485000Y-63560000D01*
X95825000Y-58420000D02*
X95825000Y-63560000D01*
X95825000Y-63560000D02*
X98485000Y-63560000D01*
%TO.C,J2*%
X121225000Y-63560000D02*
X123885000Y-63560000D01*
X121225000Y-58420000D02*
X121225000Y-63560000D01*
X123885000Y-58420000D02*
X123885000Y-63560000D01*
X121225000Y-58420000D02*
X123885000Y-58420000D01*
X121225000Y-57150000D02*
X121225000Y-55820000D01*
X121225000Y-55820000D02*
X122555000Y-55820000D01*
%TD*%
M02*
